<mxfile host="app.diagrams.net" agent="Mozilla/5.0 (Windows NT 10.0; Win64; x64) AppleWebKit/537.36 (KHTML, like Gecko) Chrome/141.0.0.0 Safari/537.36 Edg/141.0.0.0" version="28.2.6">
  <diagram name="PÃ¡gina-1" id="So4qBw8gn1XQoUc89aNr">
    <mxGraphModel dx="2304" dy="1983" grid="1" gridSize="10" guides="1" tooltips="1" connect="1" arrows="1" fold="1" page="1" pageScale="1" pageWidth="827" pageHeight="1169" math="0" shadow="0">
      <root>
        <mxCell id="0" />
        <mxCell id="1" parent="0" />
        <mxCell id="4OeTVu7C39kkyASgQS9u-2" style="edgeStyle=orthogonalEdgeStyle;rounded=0;orthogonalLoop=1;jettySize=auto;html=1;entryX=0.5;entryY=0;entryDx=0;entryDy=0;" edge="1" parent="1" source="pj0uSiLMGuprIYFmuyv2-1" target="4OeTVu7C39kkyASgQS9u-1">
          <mxGeometry relative="1" as="geometry" />
        </mxCell>
        <mxCell id="4OeTVu7C39kkyASgQS9u-3" value="BFO:0000057&lt;div&gt;(has_participant)&lt;/div&gt;" style="edgeLabel;html=1;align=center;verticalAlign=middle;resizable=0;points=[];" vertex="1" connectable="0" parent="4OeTVu7C39kkyASgQS9u-2">
          <mxGeometry x="-0.0272" y="-1" relative="1" as="geometry">
            <mxPoint x="3" y="-49" as="offset" />
          </mxGeometry>
        </mxCell>
        <mxCell id="4OeTVu7C39kkyASgQS9u-32" style="edgeStyle=orthogonalEdgeStyle;rounded=0;orthogonalLoop=1;jettySize=auto;html=1;entryX=1;entryY=0.5;entryDx=0;entryDy=0;" edge="1" parent="1" source="pj0uSiLMGuprIYFmuyv2-1" target="pj0uSiLMGuprIYFmuyv2-3">
          <mxGeometry relative="1" as="geometry" />
        </mxCell>
        <mxCell id="4OeTVu7C39kkyASgQS9u-33" value="pkg:operated_by" style="edgeLabel;html=1;align=center;verticalAlign=middle;resizable=0;points=[];" vertex="1" connectable="0" parent="4OeTVu7C39kkyASgQS9u-32">
          <mxGeometry x="-0.0114" y="4" relative="1" as="geometry">
            <mxPoint x="1" y="-4" as="offset" />
          </mxGeometry>
        </mxCell>
        <mxCell id="pj0uSiLMGuprIYFmuyv2-1" value="&lt;div&gt;osdu:WellActivity.1.2.0&lt;/div&gt;(Well Activity)" style="rounded=0;whiteSpace=wrap;html=1;" parent="1" vertex="1">
          <mxGeometry x="380" y="-20" width="140" height="60" as="geometry" />
        </mxCell>
        <mxCell id="pj0uSiLMGuprIYFmuyv2-2" value="&lt;div&gt;wd:Q485258&lt;/div&gt;&lt;div&gt;(federative unit of Brazil)&lt;/div&gt;" style="rounded=0;whiteSpace=wrap;html=1;" parent="1" vertex="1">
          <mxGeometry x="764" y="-20" width="140" height="60" as="geometry" />
        </mxCell>
        <mxCell id="pj0uSiLMGuprIYFmuyv2-3" value="&lt;div&gt;osdu:Organisation.1.2.0&lt;/div&gt;(Organisation)" style="rounded=0;whiteSpace=wrap;html=1;" parent="1" vertex="1">
          <mxGeometry x="110" y="-20" width="140" height="60" as="geometry" />
        </mxCell>
        <mxCell id="pj0uSiLMGuprIYFmuyv2-4" value="osdu:Basin.1.2.0.md&lt;div&gt;(Basin)&lt;/div&gt;" style="rounded=0;whiteSpace=wrap;html=1;" parent="1" vertex="1">
          <mxGeometry x="764" y="80" width="140" height="60" as="geometry" />
        </mxCell>
        <mxCell id="pj0uSiLMGuprIYFmuyv2-5" value="osdu:Field.1.1.0.md&lt;div&gt;&lt;span style=&quot;background-color: transparent; color: light-dark(rgb(0, 0, 0), rgb(255, 255, 255));&quot;&gt;(Field)&lt;/span&gt;&lt;/div&gt;" style="rounded=0;whiteSpace=wrap;html=1;" parent="1" vertex="1">
          <mxGeometry x="764" y="180" width="140" height="60" as="geometry" />
        </mxCell>
        <mxCell id="pj0uSiLMGuprIYFmuyv2-6" value="locn:geometry&lt;div&gt;(Well Head)&lt;/div&gt;" style="rounded=0;whiteSpace=wrap;html=1;" parent="1" vertex="1">
          <mxGeometry x="580" y="330" width="140" height="60" as="geometry" />
        </mxCell>
        <mxCell id="pj0uSiLMGuprIYFmuyv2-7" value="pkg:formation&lt;div&gt;(Geological Formation)&lt;/div&gt;" style="rounded=0;whiteSpace=wrap;html=1;" parent="1" vertex="1">
          <mxGeometry x="380" y="430" width="140" height="60" as="geometry" />
        </mxCell>
        <mxCell id="pj0uSiLMGuprIYFmuyv2-8" value="pkg:group&lt;div&gt;(Geological Group)&lt;/div&gt;" style="rounded=0;whiteSpace=wrap;html=1;" parent="1" vertex="1">
          <mxGeometry x="540" y="430" width="140" height="60" as="geometry" />
        </mxCell>
        <mxCell id="pj0uSiLMGuprIYFmuyv2-9" value="pkg:member&lt;div&gt;(Geological Member)&lt;/div&gt;" style="rounded=0;whiteSpace=wrap;html=1;" parent="1" vertex="1">
          <mxGeometry x="220" y="430" width="140" height="60" as="geometry" />
        </mxCell>
        <mxCell id="pj0uSiLMGuprIYFmuyv2-10" value="geo:lat&lt;div&gt;(WS84)&lt;/div&gt;" style="rounded=0;whiteSpace=wrap;html=1;" parent="1" vertex="1">
          <mxGeometry x="757" y="390" width="140" height="60" as="geometry" />
        </mxCell>
        <mxCell id="pj0uSiLMGuprIYFmuyv2-11" value="geo:long&lt;div&gt;(&lt;span style=&quot;font-size: 11px; text-wrap-mode: nowrap; background-color: rgb(255, 255, 255);&quot;&gt;WS84&lt;/span&gt;)&lt;/div&gt;" style="rounded=0;whiteSpace=wrap;html=1;" parent="1" vertex="1">
          <mxGeometry x="764" y="270" width="140" height="60" as="geometry" />
        </mxCell>
        <mxCell id="pj0uSiLMGuprIYFmuyv2-13" value="xsd:string" style="rounded=0;whiteSpace=wrap;html=1;" parent="1" vertex="1">
          <mxGeometry x="220" y="130" width="140" height="60" as="geometry" />
        </mxCell>
        <mxCell id="pj0uSiLMGuprIYFmuyv2-15" value="xsd:date" style="rounded=0;whiteSpace=wrap;html=1;" parent="1" vertex="1">
          <mxGeometry x="274" y="-140" width="140" height="60" as="geometry" />
        </mxCell>
        <mxCell id="pj0uSiLMGuprIYFmuyv2-16" value="xsd:date" style="rounded=0;whiteSpace=wrap;html=1;" parent="1" vertex="1">
          <mxGeometry x="480" y="-140" width="140" height="60" as="geometry" />
        </mxCell>
        <mxCell id="4OeTVu7C39kkyASgQS9u-26" style="edgeStyle=orthogonalEdgeStyle;rounded=0;orthogonalLoop=1;jettySize=auto;html=1;entryX=0.5;entryY=0;entryDx=0;entryDy=0;" edge="1" parent="1" source="pj0uSiLMGuprIYFmuyv2-17" target="pj0uSiLMGuprIYFmuyv2-18">
          <mxGeometry relative="1" as="geometry" />
        </mxCell>
        <mxCell id="4OeTVu7C39kkyASgQS9u-27" value="sosa:hasSimpleResult" style="edgeLabel;html=1;align=center;verticalAlign=middle;resizable=0;points=[];" vertex="1" connectable="0" parent="4OeTVu7C39kkyASgQS9u-26">
          <mxGeometry x="-0.0083" y="5" relative="1" as="geometry">
            <mxPoint as="offset" />
          </mxGeometry>
        </mxCell>
        <mxCell id="pj0uSiLMGuprIYFmuyv2-17" value="sosa:Observation&lt;div&gt;(Well Depth)&lt;/div&gt;" style="rounded=0;whiteSpace=wrap;html=1;" parent="1" vertex="1">
          <mxGeometry x="120" y="270" width="140" height="60" as="geometry" />
        </mxCell>
        <mxCell id="pj0uSiLMGuprIYFmuyv2-18" value="cdt:length" style="rounded=0;whiteSpace=wrap;html=1;" parent="1" vertex="1">
          <mxGeometry x="-100" y="270" width="140" height="60" as="geometry" />
        </mxCell>
        <mxCell id="4OeTVu7C39kkyASgQS9u-24" style="edgeStyle=orthogonalEdgeStyle;rounded=0;orthogonalLoop=1;jettySize=auto;html=1;entryX=1;entryY=0.5;entryDx=0;entryDy=0;exitX=0;exitY=0.5;exitDx=0;exitDy=0;" edge="1" parent="1" source="4OeTVu7C39kkyASgQS9u-1" target="pj0uSiLMGuprIYFmuyv2-13">
          <mxGeometry relative="1" as="geometry">
            <Array as="points">
              <mxPoint x="300" y="300" />
              <mxPoint x="300" y="300" />
            </Array>
          </mxGeometry>
        </mxCell>
        <mxCell id="4OeTVu7C39kkyASgQS9u-25" value="dct:identifier" style="edgeLabel;html=1;align=center;verticalAlign=middle;resizable=0;points=[];" vertex="1" connectable="0" parent="4OeTVu7C39kkyASgQS9u-24">
          <mxGeometry x="0.2129" y="-3" relative="1" as="geometry">
            <mxPoint x="-33" y="-30" as="offset" />
          </mxGeometry>
        </mxCell>
        <mxCell id="4OeTVu7C39kkyASgQS9u-30" style="edgeStyle=orthogonalEdgeStyle;rounded=0;orthogonalLoop=1;jettySize=auto;html=1;entryX=1;entryY=0.5;entryDx=0;entryDy=0;" edge="1" parent="1" source="4OeTVu7C39kkyASgQS9u-1" target="pj0uSiLMGuprIYFmuyv2-17">
          <mxGeometry relative="1" as="geometry" />
        </mxCell>
        <mxCell id="4OeTVu7C39kkyASgQS9u-1" value="osdu:Wellbore.1.5.1.md&lt;div&gt;(Well)&lt;/div&gt;" style="rounded=0;whiteSpace=wrap;html=1;" vertex="1" parent="1">
          <mxGeometry x="380" y="270" width="140" height="60" as="geometry" />
        </mxCell>
        <mxCell id="4OeTVu7C39kkyASgQS9u-31" value="xsd:string" style="rounded=0;whiteSpace=wrap;html=1;" vertex="1" parent="1">
          <mxGeometry x="50" y="130" width="140" height="60" as="geometry" />
        </mxCell>
      </root>
    </mxGraphModel>
  </diagram>
</mxfile>
